<svg width="311" height="285" viewBox="0 0 311 285" fill="none" xmlns="http://www.w3.org/2000/svg">
<rect width="311" height="285" fill="#F7E6D5"/>
<path d="M160.595 35.0005C163.458 35.0005 165.888 36.5697 167.532 38.7886C168.78 40.4727 169.631 42.5905 169.969 44.9106C173.255 45.3674 176.18 47.2598 177.943 50.0767H178.036L178.579 51.2192C179.776 53.7392 182.321 55.35 185.116 55.3501H250.095C251.835 53.4942 254.307 52.3335 257.053 52.3335C262.322 52.3336 266.591 56.6019 266.591 61.8706C266.591 64.36 265.636 66.6255 264.075 68.3237L285.281 111.861H295.867L295.146 114.406C293.593 119.891 288.652 124.389 282.169 127.478C275.626 130.595 267.2 132.441 258.061 132.441C248.921 132.441 240.494 130.595 233.951 127.478C227.469 124.389 222.528 119.891 220.975 114.406L220.254 111.861H228.154L249.603 67.8247C249.554 67.7637 249.505 67.7024 249.458 67.6401H179.4V72.2632C179.4 75.3961 178.193 78.2444 176.222 80.3745L182.842 86.0444L184.328 87.3169L183.089 88.8296C173.442 100.617 168.894 116.617 168.094 135.829V190.992C171.652 191.146 174.491 194.081 174.491 197.677V204.114C174.491 205.666 173.96 207.093 173.073 208.228C173.964 209.428 174.491 210.913 174.491 212.521V214.096H174.499V216.096C174.499 222.204 179.451 227.156 185.559 227.156H203.768C210.076 227.156 215.189 232.27 215.189 238.578C215.189 244.886 210.076 250 203.768 250H116.36C110.052 250 104.938 244.886 104.938 238.578C104.938 232.27 110.052 227.156 116.36 227.156H134.569C140.677 227.156 145.629 222.204 145.629 216.096V212.521C145.629 210.913 146.155 209.427 147.045 208.228C146.158 207.093 145.628 205.665 145.628 204.114V197.677C145.628 194.078 148.472 191.142 152.034 190.992V135.609C151.216 116.464 146.668 100.517 137.046 88.7603L135.808 87.2466L137.293 85.9751L143.875 80.3345C141.925 78.2074 140.735 75.3734 140.735 72.2632V67.6401H71.7402C71.5598 67.8774 71.3684 68.1056 71.167 68.3247L92.373 111.861H102.968L102.247 114.406C100.693 119.891 95.7531 124.389 89.2705 127.478C82.7276 130.595 74.3007 132.441 65.1611 132.441C56.0217 132.441 47.5955 130.595 41.0527 127.478C34.5701 124.389 29.6299 119.891 28.0762 114.406L27.3545 111.861H35.2305L56.6846 67.812C55.3853 66.1823 54.6074 64.1177 54.6074 61.8706C54.6076 56.6018 58.8766 52.3335 64.1455 52.3335C66.8913 52.3335 69.3635 53.4942 71.1035 55.3501H135.353C138.148 55.35 140.693 53.7385 141.89 51.2183C143.632 47.5472 147.215 45.1208 151.231 44.8315C151.577 42.5423 152.424 40.4536 153.657 38.7886C155.301 36.5697 157.732 35.0005 160.595 35.0005ZM259.805 111.861H278.313L259.805 73.8618V111.861ZM235.122 111.861H253.548V74.0317L235.122 111.861ZM66.9053 111.861H85.4053L66.9053 73.8784V111.861ZM42.1982 111.861H60.6406V73.9985L42.1982 111.861Z" fill="#F3832D" stroke="#F3832D" stroke-width="4"/>
</svg>
