<svg width="260" height="298" viewBox="0 0 260 298" fill="none" xmlns="http://www.w3.org/2000/svg">
<rect width="260" height="298" fill="#F7E6D5"/>
<path d="M55 274C48.125 274 42.2396 271.552 37.3438 266.656C32.4479 261.76 30 255.875 30 249V224.312C30 220.146 30.9375 216.292 32.8125 212.75C34.6875 209.208 37.1875 206.188 40.3125 203.688C54.6875 192.021 65.4688 180.25 72.6562 168.375C79.8438 156.5 84.8958 145.875 87.8125 136.5H67.5C63.9583 136.5 60.9896 135.302 58.5938 132.906C56.1979 130.51 55 127.542 55 124C55 120.458 56.1979 117.49 58.5938 115.094C60.9896 112.698 63.9583 111.5 67.5 111.5H83.125C80.2083 106.917 77.9167 102.021 76.25 96.8125C74.5833 91.6042 73.75 86.0833 73.75 80.25C73.75 64.625 79.2188 51.3438 90.1562 40.4062C101.094 29.4688 114.375 24 130 24C145.625 24 158.906 29.4688 169.844 40.4062C180.781 51.3438 186.25 64.625 186.25 80.25C186.25 86.0833 185.417 91.6042 183.75 96.8125C182.083 102.021 179.792 106.917 176.875 111.5H192.5C196.042 111.5 199.01 112.698 201.406 115.094C203.802 117.49 205 120.458 205 124C205 127.542 203.802 130.51 201.406 132.906C199.01 135.302 196.042 136.5 192.5 136.5H172.188C175.104 145.875 180.156 156.5 187.344 168.375C194.531 180.25 205.312 192.021 219.688 203.688C222.812 206.188 225.312 209.208 227.188 212.75C229.062 216.292 230 220.146 230 224.312V249C230 255.875 227.552 261.76 222.656 266.656C217.76 271.552 211.875 274 205 274H55ZM55 249H205V224C185.833 209 171.979 193.531 163.438 177.594C154.896 161.656 149.167 147.958 146.25 136.5H113.75C110.833 147.958 105.104 161.656 96.5625 177.594C88.0208 193.531 74.1667 209 55 224V249ZM130 111.5C138.75 111.5 146.146 108.479 152.188 102.438C158.229 96.3958 161.25 89 161.25 80.25C161.25 71.5 158.229 64.1042 152.188 58.0625C146.146 52.0208 138.75 49 130 49C121.25 49 113.854 52.0208 107.812 58.0625C101.771 64.1042 98.75 71.5 98.75 80.25C98.75 89 101.771 96.3958 107.812 102.438C113.854 108.479 121.25 111.5 130 111.5Z" fill="#097FC5"/>
</svg>
