<svg width="20" height="18" viewBox="0 0 20 18" fill="none" xmlns="http://www.w3.org/2000/svg">
<path d="M16.0767 9.57389H5.85583C5.59611 9.57389 5.3784 9.48605 5.20271 9.31035C5.02702 9.13466 4.93917 8.91695 4.93917 8.65723C4.93917 8.3975 5.02702 8.1798 5.20271 8.0041C5.3784 7.82841 5.59611 7.74056 5.85583 7.74056H16.0767L15.2975 6.96139C15.1142 6.77806 15.0263 6.56417 15.034 6.31973C15.0416 6.07528 15.1294 5.86139 15.2975 5.67806C15.4808 5.49473 15.6985 5.39924 15.9506 5.3916C16.2027 5.38396 16.4204 5.47181 16.6038 5.65514L18.9642 8.01556C19.1475 8.19889 19.2392 8.41278 19.2392 8.65723C19.2392 8.90167 19.1475 9.11556 18.9642 9.29889L16.6038 11.6593C16.4204 11.8426 16.2027 11.9305 15.9506 11.9229C15.6985 11.9152 15.4808 11.8197 15.2975 11.6364C15.1294 11.4531 15.0416 11.2392 15.034 10.9947C15.0263 10.7503 15.1142 10.5364 15.2975 10.3531L16.0767 9.57389ZM11.3558 4.99056V2.24056H2.18917V15.0739H11.3558V12.3239C11.3558 12.0642 11.4437 11.8465 11.6194 11.6708C11.7951 11.4951 12.0128 11.4072 12.2725 11.4072C12.5322 11.4072 12.7499 11.4951 12.9256 11.6708C13.1013 11.8465 13.1892 12.0642 13.1892 12.3239V15.0739C13.1892 15.5781 13.0097 16.0097 12.6506 16.3687C12.2916 16.7277 11.86 16.9072 11.3558 16.9072H2.18917C1.685 16.9072 1.2534 16.7277 0.894377 16.3687C0.535349 16.0097 0.355835 15.5781 0.355835 15.0739V2.24056C0.355835 1.73639 0.535349 1.3048 0.894377 0.945768C1.2534 0.58674 1.685 0.407227 2.18917 0.407227H11.3558C11.86 0.407227 12.2916 0.58674 12.6506 0.945768C13.0097 1.3048 13.1892 1.73639 13.1892 2.24056V4.99056C13.1892 5.25028 13.1013 5.46799 12.9256 5.64368C12.7499 5.81938 12.5322 5.90723 12.2725 5.90723C12.0128 5.90723 11.7951 5.81938 11.6194 5.64368C11.4437 5.46799 11.3558 5.25028 11.3558 4.99056Z" fill="#F3832D"/>
<path d="M16.0747 10.0121C15.8136 10.0653 15.5529 10.088 15.2843 10.0649C15.2231 10.0596 15.2289 10.0185 15.2037 10.0118C15.1575 9.99952 15.0799 10.0439 15.069 10.0439C15.0015 10.0445 15.0279 9.97247 15.0188 9.96969C14.9175 9.94046 14.9466 10.0225 14.8498 10.0304C14.7237 10.0406 14.5618 10.026 14.4098 10.0219C14.3565 10.0203 14.3802 9.96551 14.2651 9.97012C14.1835 9.97335 13.9332 10.0358 13.8179 9.96908C13.8172 9.94388 13.8318 9.91605 13.8379 9.89004C13.6727 9.99509 13.6136 9.99048 13.3793 9.96487C13.3423 9.96084 13.3072 10.004 13.2419 9.98807C13.1766 9.97212 13.1739 9.90559 13.0427 9.9064C12.9961 9.90685 12.9679 9.95376 12.8965 9.95578C12.6936 9.96162 12.307 9.90335 12.1404 9.90133C11.8123 9.8973 11.6338 9.97738 11.3425 9.94955C11.32 9.94754 11.3693 9.89612 11.3282 9.89511C11.2867 9.8941 11.2435 9.96222 11.2333 9.96383C11.1232 9.98137 10.8904 9.89011 10.8292 9.90115C10.6802 9.92817 10.827 9.95819 10.6206 9.9711C10.4241 9.98338 10.1528 9.89469 9.958 9.87735C9.73228 9.85719 9.65948 9.98603 9.4895 9.85153C8.89251 9.85939 8.29314 9.8642 7.69547 9.87106C7.69717 9.84425 7.69914 9.81742 7.70118 9.79061C7.65393 9.80916 7.60666 9.82774 7.5594 9.84609C7.56654 9.82614 7.57331 9.80616 7.58045 9.7864C7.35848 9.86341 7.16065 9.90314 6.9013 9.88198C6.89623 9.88158 6.90956 9.82812 6.90536 9.82675C6.84688 9.81666 6.78153 9.85779 6.73019 9.84811C6.6061 9.82492 6.39531 9.70835 6.48812 9.85092C6.28888 9.83064 6.0656 9.8472 5.85583 9.85044C5.73841 9.85213 5.61891 9.83527 5.51346 9.79633C5.36546 9.73888 5.36423 9.63652 5.30791 9.60071C5.2521 9.5617 5.24322 9.64079 5.2202 9.62957C5.15691 9.59749 5.08274 9.54202 5.03157 9.48149C4.96935 9.40939 4.93808 9.32982 4.96647 9.29343C4.92311 9.28874 4.87778 9.27975 4.83307 9.26845C4.89966 9.24557 4.70244 8.82529 4.72759 8.70026C4.72737 8.67859 4.76689 8.67525 4.7664 8.65961C4.76637 8.65881 4.76635 8.65802 4.76632 8.65723C4.7655 8.48559 4.71186 8.43019 4.74108 8.26282C4.75492 8.20498 4.78508 8.31236 4.81472 8.16502C4.82011 8.15345 4.74951 8.128 4.85182 7.96953C4.88858 7.91611 4.93624 7.85508 4.994 7.79539C5.18283 7.57317 5.5986 7.41442 5.85583 7.45224C5.86264 7.45294 5.86936 7.45367 5.87597 7.45444C5.89773 7.45686 5.83149 7.52502 5.931 7.50913C5.96704 7.50349 5.94978 7.45509 6.03715 7.45469C6.37578 7.45267 6.73684 7.50831 7.08227 7.46213C7.06968 7.51678 6.94664 7.57808 7.13158 7.5438C7.16114 7.53814 7.13907 7.48934 7.15233 7.48752C7.25975 7.47342 7.35288 7.50828 7.46913 7.48954C7.50347 7.48389 7.51199 7.44557 7.55483 7.4365C7.61806 7.42299 7.64604 7.47763 7.71947 7.45444C7.83432 7.41795 7.85206 7.36615 7.99447 7.46775C8.80157 7.4613 9.60493 7.43269 10.4093 7.47745C10.6419 7.44842 10.8564 7.41597 11.0988 7.40488C11.1702 7.40165 11.1839 7.47101 11.2978 7.44803C11.3233 7.44299 11.5052 7.36856 11.5317 7.5087C11.5823 7.49661 11.6143 7.4962 11.6579 7.48875C11.6249 7.46818 11.5908 7.44738 11.5592 7.42661C11.7428 7.44899 11.8927 7.39959 12.0552 7.37619C12.1749 7.35906 12.0899 7.41916 12.1633 7.41312C12.2368 7.40727 12.2702 7.39375 12.362 7.46573C12.434 7.38269 12.4819 7.44093 12.6149 7.44315C12.6291 7.44335 12.7117 7.41115 12.7807 7.41758C12.8303 7.42221 12.845 7.474 12.9238 7.46598C12.9368 7.46477 13.1034 7.4006 13.1564 7.39475C13.239 7.38547 13.3703 7.45187 13.3863 7.45267C13.6185 7.46436 13.708 7.39881 13.8729 7.50669C13.9062 7.44258 14.0438 7.40506 14.1549 7.41129C14.2953 7.41915 14.5769 7.55024 14.6153 7.41172C14.7778 7.47342 14.7602 7.43534 14.9529 7.43412C15.1283 7.43291 15.5927 7.4859 15.7349 7.47825C15.877 7.47079 15.8077 7.39374 15.8642 7.38346C15.9565 7.36636 15.9066 7.4232 15.9699 7.4224C16.0063 7.4219 16.0418 7.42106 16.0767 7.41982L15.8499 7.96736C15.7502 7.8746 15.6533 7.79308 15.5433 7.71098C15.565 7.67626 15.5864 7.64092 15.6079 7.60597C15.5922 7.60913 15.5766 7.61232 15.5609 7.61548C15.5353 7.58923 15.5056 7.56071 15.4824 7.53582C15.5614 7.86257 15.2956 7.33072 15.179 7.20787C15.1603 7.18818 15.137 7.16829 15.1106 7.1483C14.9747 7.04652 14.7879 6.86327 14.7253 6.6845C14.7062 6.63269 14.7581 6.65789 14.7541 6.64737C14.7135 6.52655 14.677 6.50726 14.6781 6.33506C14.6784 6.32627 14.6793 6.31747 14.6807 6.30869C14.6934 6.23025 14.7462 6.15722 14.7621 6.08482C14.8107 5.85469 14.9234 5.63774 15.0683 5.468L15.0777 5.45824C15.2805 5.22799 15.6126 5.05352 15.9401 5.04313C15.9922 5.04044 16.0456 5.04101 16.0996 5.04554C16.2112 5.05515 16.2897 5.14214 16.3714 5.17316C16.4888 5.21915 16.5877 5.21278 16.6885 5.28387C16.7389 5.32015 16.7847 5.38137 16.8204 5.43854C16.8451 5.48373 16.8682 5.5253 16.8925 5.54274C16.9419 5.57845 16.9133 5.46143 16.9791 5.55144C17.0093 5.59278 16.9132 5.56252 16.9564 5.60773C17.0912 5.74885 17.3267 5.9028 17.4341 6.08918C17.4375 6.07285 17.4375 6.05514 17.4389 6.0378C17.5916 6.19815 17.7062 6.36008 17.8643 6.52505C17.9195 6.58282 18.0503 6.65581 18.1057 6.71147C18.1611 6.76714 18.155 6.82376 18.1986 6.86908C18.2164 6.88778 18.2374 6.85254 18.2491 6.86537C18.395 7.02614 18.4291 7.1603 18.5954 7.31517C18.7784 7.4857 18.9629 7.65815 19.1481 7.83166C19.3626 8.02586 19.5216 8.34524 19.5221 8.65723C19.537 8.96771 19.3915 9.30258 19.18 9.51471C19.1014 9.59834 19.0229 9.68187 18.9447 9.76524C18.9214 9.79001 18.9418 9.84279 18.9122 9.88329C18.8665 9.94571 18.8315 9.916 18.8231 9.92206C18.7689 9.96205 18.8181 9.97279 18.7549 10.036C18.6157 10.1752 18.3646 10.3732 18.2282 10.5142C17.9137 10.8392 17.6735 11.1365 17.3744 11.4644C17.3529 11.4881 17.3249 11.4295 17.2851 11.4681C17.087 11.6598 17.0202 11.766 16.8731 11.9287C16.7895 12.0174 16.6722 12.1228 16.4774 12.2041C16.3301 12.2657 16.1353 12.3038 15.9395 12.2913C15.6394 12.2833 15.2741 12.123 15.0551 11.8788L15.0448 11.8681C14.8265 11.6285 14.7083 11.2793 14.7113 11.0048C14.7101 10.9353 14.7147 10.8671 14.7245 10.8021C14.7246 10.8021 14.7247 10.8021 14.7249 10.8022C14.6414 10.5512 14.8365 10.2212 15.0606 10.1162C15.0731 10.1107 15.0858 10.1056 15.0985 10.1007C15.0918 10.1118 15.0851 10.1229 15.0784 10.134C14.8988 10.3872 14.8066 10.7185 14.8493 11.0005C14.8811 11.2763 15.0094 11.541 15.1953 11.7301C15.3915 11.924 15.667 12.0532 15.9464 12.0615C16.2172 12.08 16.515 11.9671 16.7111 11.7667C16.8144 11.6659 16.9181 11.5633 17.0216 11.4578C17.6809 10.7863 18.296 10.0042 18.9507 9.28545C19.1125 9.11167 19.2053 8.88642 19.2027 8.65723C19.2028 8.58696 19.1957 8.51719 19.1804 8.44924C19.1539 8.34106 19.1908 8.26907 19.1263 8.18659C19.1154 8.17369 19.0961 8.23583 19.0648 8.19644C19.023 8.14489 18.9768 8.09712 18.9272 8.05249C18.443 7.61407 18.0239 7.06794 17.5559 6.64015C17.4163 6.51248 17.3561 6.53074 17.2284 6.42331C17.2676 6.42545 17.3005 6.41958 17.3372 6.41893C17.1149 6.14285 16.8744 5.88466 16.6269 5.63201C16.4559 5.45116 16.2006 5.34566 15.9496 5.3585C15.7772 5.36324 15.604 5.41262 15.4556 5.50484C15.4254 5.5237 15.3906 5.48166 15.3572 5.50381C15.3086 5.53635 15.2871 5.59679 15.2642 5.6448C15.2549 5.66473 15.2466 5.68163 15.2356 5.69569C15.1843 5.76347 15.1403 5.75137 15.0998 5.82366C15.0816 5.85965 15.1218 5.86785 15.0804 5.94105C15.0773 5.9473 15.0342 5.93392 15.0191 5.99111C14.9976 6.0721 14.983 6.20036 14.9934 6.31846C15.0011 6.42812 15.0312 6.52777 15.0531 6.58314C15.1083 6.72854 15.1327 6.86826 15.1702 6.9221C15.201 6.96566 15.2293 6.98908 15.2546 7.00427C15.3086 7.03554 15.3505 7.03238 15.4164 7.09826C15.6359 7.31752 15.8466 7.5393 16.0547 7.76252L16.0767 7.70951C15.435 7.68706 14.7968 7.6521 14.1288 7.65251C14.0669 7.65254 13.8378 7.72728 13.7233 7.72429C13.6849 7.72308 13.4841 7.70333 13.454 7.7017C13.3319 7.69545 13.2265 7.65027 13.1591 7.64079C13.0286 7.62225 12.8827 7.69281 12.8117 7.69987C12.6869 7.71237 12.4653 7.70309 12.4129 7.70128C12.2865 7.69684 12.3282 7.60956 12.2375 7.62992C12.2106 7.63601 12.2387 7.70292 12.1442 7.70292C12.0651 7.70269 12.0331 7.6523 11.979 7.64323C11.925 7.63421 11.8258 7.71214 11.7921 7.71019C11.616 7.6993 11.5381 7.64823 11.3463 7.64561C11.1871 7.6436 10.4511 7.67933 10.3899 7.69767C10.1159 7.77967 10.5723 7.74288 10.598 7.74565C10.7371 7.76158 10.7167 7.79304 10.8554 7.73295C10.9795 7.91827 11.412 7.62973 11.5228 7.84953C11.6374 7.70313 11.7337 7.77694 11.8544 7.80638C12.0212 7.84707 11.8941 7.76176 12.0158 7.76115C12.0638 7.76099 12.2029 7.8275 12.2749 7.81822C12.3469 7.80893 12.3773 7.75793 12.4738 7.75511C12.6462 7.74988 12.7849 7.77368 12.9297 7.83476C12.9562 7.80775 12.981 7.78072 13.0071 7.75371C13.1071 7.78274 13.2074 7.8116 13.3074 7.84044C13.2914 7.81685 13.2754 7.79305 13.2594 7.76945C13.2887 7.76603 13.318 7.76279 13.3472 7.75957C13.4445 7.79505 13.5373 7.82791 13.6373 7.86461C13.9088 7.72813 13.83 7.84626 13.981 7.864C14.1319 7.88173 14.2192 7.80272 14.3358 7.80229C14.4929 7.80169 14.565 7.79183 14.7234 7.79747C14.8152 7.8007 14.9709 7.87693 14.8431 7.75615C15.1297 7.74647 15.5221 7.71276 15.7785 7.76176C15.8542 7.77606 15.7532 7.8141 15.7661 7.81883C15.8304 7.84121 15.8845 7.77954 15.9508 7.78838C15.985 7.79295 16.0293 7.80073 16.0767 7.80963L16.2422 7.81235L16.1255 7.69172C16.0651 7.60338 15.9977 7.50032 15.961 7.45254C15.8843 7.35276 15.6891 7.27053 15.6708 7.26048C15.5685 7.20413 15.5942 7.13601 15.5655 7.11378C15.4169 6.99932 15.3606 6.9786 15.3912 6.86768C15.3948 6.85683 15.3994 6.84514 15.4052 6.83249C15.3305 6.8531 15.1187 6.72698 15.1984 6.63603C15.1118 6.67495 15.0631 6.49945 15.0416 6.38788C15.0673 6.36587 15.0937 6.3453 15.121 6.3269C15.1199 6.3254 15.1188 6.32388 15.1178 6.32235C15.0013 6.16287 15.1152 5.85379 15.3184 5.69719C15.4024 5.63164 15.4927 5.58465 15.571 5.55049C15.5774 5.54783 15.5582 5.47914 15.6079 5.47432C15.6111 5.47444 15.6191 5.50427 15.6482 5.49695C15.7008 5.48201 15.839 5.47091 15.9537 5.49241C16.0492 5.50773 16.1225 5.53935 16.1391 5.54331C16.2723 5.57929 16.3149 5.55026 16.3978 5.59322C16.4794 5.6417 16.4858 5.68573 16.5237 5.73517C16.5363 5.75158 16.552 5.76904 16.5736 5.78852C16.618 5.82868 16.6997 5.82397 16.7602 5.89664C16.796 5.93961 16.766 5.97744 16.7945 6.01139C16.8957 6.1323 16.9987 6.19246 17.0531 6.33522C17.1867 6.25303 17.1543 6.37968 17.1949 6.43661C17.3598 6.66792 17.6523 6.86919 17.8124 7.049C18.1609 7.44067 18.4628 7.82044 18.7844 8.19533C18.8919 8.32628 18.9432 8.45988 18.9475 8.61027C18.948 8.62828 18.9516 8.64331 18.9569 8.65723C18.9749 8.70511 19.0196 8.73965 19.0006 8.81012C18.9883 8.85114 18.9243 8.87216 18.8965 8.92547C18.8743 8.96864 18.8548 9.04764 18.8046 9.10009C18.7959 9.10931 18.776 9.09693 18.7582 9.09288C18.7479 9.09196 18.7378 9.09359 18.7291 9.10208C18.5337 9.29322 18.3711 9.50807 18.1938 9.72123C18.1282 9.80026 18.0347 9.79626 18.1318 9.86883C18.0833 9.87565 18.0383 9.8844 17.9918 9.88983C17.9458 10.0428 17.8088 10.0684 17.6878 10.2167C17.6749 10.2329 17.632 10.3932 17.532 10.4085C17.5581 10.4428 17.5927 10.4595 17.6184 10.4886C17.573 10.5571 17.4506 10.6097 17.4085 10.6446C17.3665 10.6795 17.3801 10.7444 17.3689 10.7564C17.3259 10.8014 17.2845 10.7395 17.2803 10.742C17.0258 10.8976 17.0749 10.9035 17.0285 11.1047C17.017 11.1553 16.7498 11.309 16.7684 11.4127C16.7415 11.3897 16.7313 11.356 16.7109 11.3289C16.6412 11.3857 16.5709 11.4428 16.501 11.4999C16.5384 11.5103 16.5786 11.5182 16.6149 11.53C16.5869 11.5503 16.5624 11.5724 16.5402 11.5958C16.4537 11.6879 16.3838 11.7963 16.2713 11.8367C16.1924 11.8624 16.183 11.785 16.1438 11.8111C16.1357 11.8161 16.1612 11.8627 16.1346 11.8719C16.0665 11.8944 16.006 11.8985 15.9515 11.8944C15.8301 11.8831 15.7375 11.8414 15.6032 11.7723C15.5217 11.728 15.3951 11.7429 15.3206 11.6133C15.3173 11.6059 15.3135 11.597 15.3101 11.5874C15.3008 11.5697 15.2823 11.4182 15.1405 11.3863C15.1604 11.3429 15.1686 11.312 15.1902 11.2815C14.994 11.1775 15.1071 11.1473 15.1525 10.991C15.1591 10.9709 15.1653 10.9487 15.1712 10.9236C15.1814 10.8287 15.2533 10.5728 15.3823 10.4379C15.4126 10.4021 15.4379 10.3711 15.4556 10.3485C15.5107 10.2774 15.4613 10.2303 15.4706 10.2171C15.5268 10.1387 15.5736 10.1854 15.6282 10.1154C15.6828 10.0455 15.7085 9.91391 15.7773 9.85481C15.83 9.80956 15.8495 9.90629 15.9016 9.8137C15.9122 9.79434 15.8201 9.78783 15.9158 9.73087C15.9308 9.72184 16.106 9.65327 16.1426 9.63981C16.1093 9.73495 15.9636 9.9614 15.9062 10.0439C15.793 10.2069 15.6608 10.383 15.5136 10.5692C15.4145 10.7067 15.3842 10.8337 15.4086 10.983C15.4323 11.1344 15.4942 11.245 15.6089 11.351L15.5962 11.3377C15.7162 11.4366 15.8222 11.4703 15.9645 11.4665C16.0975 11.4584 16.1688 11.4208 16.2649 11.3204C17.1104 10.4319 17.9852 9.5675 18.6214 8.9561C18.6339 8.94441 18.6453 8.93289 18.6558 8.9216C18.7141 8.85762 18.7969 8.84475 18.8206 8.78806C18.8401 8.73349 18.766 8.76619 18.7795 8.72009C18.7849 8.69869 18.7972 8.67906 18.8088 8.65723C18.8227 8.63142 18.8357 8.60512 18.8337 8.57743C18.826 8.47495 18.7867 8.37977 18.6993 8.28042C18.4015 7.95628 18.1023 7.63335 17.8008 7.31939C17.6884 7.20243 17.559 7.14859 17.4546 7.04425C17.414 7.00362 17.4615 6.95362 17.4323 6.92521C17.1176 6.61824 16.7831 6.3776 16.4797 6.06275C16.4343 6.01562 16.3926 5.96213 16.352 5.90685C16.3081 5.83649 16.2576 5.77112 16.1923 5.74031C16.1214 5.70646 16.0368 5.72107 15.961 5.7332C15.9456 5.7355 15.9309 5.7376 15.9167 5.73907C15.8705 5.74423 15.8364 5.69871 15.8172 5.69887C15.7528 5.70184 15.7931 5.75786 15.7656 5.7671C15.694 5.7948 15.6164 5.75031 15.5482 5.81161C15.5227 5.83631 15.5583 5.86987 15.5288 5.90936L15.5386 5.89909C15.5386 5.89912 15.5386 5.89914 15.5386 5.89917C15.5051 5.95183 15.4851 5.90534 15.4561 5.94027C15.4545 5.94225 15.4876 5.95645 15.4757 5.97556C15.4117 6.07826 15.3902 6.20753 15.3933 6.33096C15.3937 6.35555 15.3951 6.37816 15.3967 6.39903C15.4056 6.51303 15.438 6.61741 15.5263 6.73263C15.6651 6.89971 15.7998 7.06541 15.9406 7.21604C16.0088 7.28876 16.0226 7.23754 16.0465 7.25833C16.1607 7.3578 16.1612 7.43473 16.2849 7.53237L16.7825 8.04657L16.0767 8.03499C16.0754 8.03514 16.0741 8.03529 16.0729 8.03545C16.0463 8.03869 15.9395 8.10237 15.8376 8.08624C15.7825 8.07755 15.72 8.03783 15.6731 8.02856C15.6262 8.01928 15.6186 8.07777 15.5623 8.07781C15.4596 8.07801 15.4894 8.03748 15.3426 8.04473C15.2834 8.04755 15.0859 8.10297 14.9336 8.09875C14.6848 8.09189 14.3763 8.04126 14.0829 8.04046C13.9823 8.04005 13.853 8.10016 13.697 8.10076C13.5062 8.10156 13.1548 8.0879 12.9593 8.08709C12.8594 8.08669 12.8521 8.02373 12.8402 8.02111C12.7638 8.0036 12.7947 8.07393 12.7434 8.07116C12.673 8.06733 12.6074 8.01544 12.5434 8.01201C12.5027 8.00982 12.4962 8.06166 12.4874 8.06206C12.1603 8.07921 11.8713 8.07436 11.5463 8.08001C9.80319 8.10985 8.04343 8.1764 6.30373 8.14636C6.15788 8.14394 6.15239 8.07858 6.02422 8.08886C5.9668 8.09338 5.91025 8.1242 5.85583 8.14284C5.81131 8.166 5.78152 8.17331 5.73042 8.09515C5.73407 8.12647 5.73843 8.14847 5.74198 8.17694C5.6407 8.16636 5.56213 8.22006 5.49912 8.30051C5.46718 8.34097 5.44566 8.3806 5.42721 8.4184C5.39282 8.4901 5.37352 8.56211 5.36987 8.65723C5.36935 8.67291 5.36934 8.68819 5.36987 8.70311C5.37552 8.79054 5.32408 8.80234 5.41349 8.84443C5.42725 8.90226 5.45476 8.95668 5.50175 9.01131C5.59429 9.11658 5.69533 9.16647 5.85583 9.17709C6.16893 9.18895 6.48125 9.20512 6.79079 9.23951C6.94786 9.12235 7.09842 9.19617 7.31567 9.21351C7.3425 9.2157 7.31372 9.17295 7.39326 9.17658C7.49316 9.18105 7.54485 9.24636 7.71306 9.24274C7.7576 9.24174 8.08748 9.16932 8.20953 9.20643C8.33158 9.24353 8.50838 9.2653 8.63519 9.30079C8.61717 9.27276 8.59435 9.24595 8.57429 9.21833C8.63753 9.21349 8.7011 9.20883 8.76434 9.20399C8.77352 9.23766 8.78271 9.27137 8.79155 9.30525C8.82827 9.27318 8.86501 9.24152 8.90206 9.20905C8.98195 9.38205 8.90005 9.32563 9.07783 9.28187C9.16691 9.26009 9.23761 9.29032 9.32907 9.27277C9.36203 9.26633 9.38311 9.21538 9.41943 9.20887C9.50849 9.19314 9.45658 9.26326 9.5116 9.26289C9.56702 9.26228 9.64658 9.18527 9.74585 9.21955C9.64221 9.35685 9.94177 9.31206 9.95605 9.20539C9.99171 9.20519 10.0216 9.20963 10.061 9.20661C10.0246 9.47602 10.2114 9.28484 10.2855 9.24793C10.3595 9.21108 10.3565 9.28347 10.3739 9.28065C10.4238 9.27278 10.3875 9.24272 10.4224 9.24171C10.6543 9.23566 10.8726 9.27985 11.1014 9.28388C11.1344 9.28446 11.1052 9.24355 11.1435 9.24757C11.182 9.2516 11.2188 9.29232 11.2756 9.2895C11.2908 9.28878 11.2956 9.25285 11.3193 9.25282C11.8167 9.25443 12.289 9.28504 12.7962 9.28968C12.8421 9.29009 12.8782 9.22619 12.9669 9.2284C13.0556 9.23062 13.1902 9.28828 13.3004 9.29273C13.3296 9.29394 13.3376 9.24072 13.3763 9.24213C13.5082 9.24698 13.6218 9.29032 13.7588 9.29737C13.9903 9.30926 14.2327 9.27679 14.4676 9.30824C14.5121 9.31408 14.505 9.35847 14.5692 9.37098C14.6801 9.39256 14.6383 9.32783 14.6608 9.31916C14.7342 9.29115 14.7573 9.37718 14.8283 9.35505C14.8391 9.35163 14.8237 9.30061 14.8334 9.29981C14.9843 9.29094 14.9923 9.41051 15.1527 9.34639C15.2955 9.41514 15.0571 9.43855 15.0326 9.47505C14.9728 9.56377 15.1309 9.66802 15.224 9.7015C15.3042 9.73033 15.3036 9.6751 15.3356 9.67507C15.5045 9.67487 15.7561 9.66437 15.8847 9.69057C15.9625 9.7063 15.8222 9.72931 15.862 9.74746C15.9014 9.76558 15.9269 9.72407 15.9674 9.76943C16.0078 9.81481 16.0904 9.94833 16.0747 10.0121ZM6.93567 7.59965C6.725 7.77675 6.2313 7.79479 5.85583 7.78418C5.7728 7.78164 5.69583 7.78755 5.63037 7.79921C5.42512 7.82901 5.20523 7.901 5.18242 7.98382C5.17348 8.01544 5.19549 8.04483 5.25599 8.08027C5.25976 8.07641 5.26355 8.07258 5.26738 8.06877C5.43092 7.90614 5.62088 7.81873 5.85583 7.81557C5.92201 7.81492 5.9904 7.8151 6.06226 7.81664C6.09864 7.81744 6.31561 7.84001 6.39109 7.84404C6.43357 7.84627 6.43494 7.88644 6.49273 7.88603C6.50531 7.88583 6.57503 7.83335 6.60053 7.83476C6.68788 7.83941 6.94767 7.91998 6.98394 7.91765C7.08452 7.9108 7.04592 7.84836 7.08933 7.83702C7.23519 7.79951 7.25126 7.89329 7.39576 7.86284C7.42159 7.8574 7.50728 7.77567 7.61437 7.78636C7.65789 7.79081 7.73201 7.833 7.76533 7.83098C7.94687 7.82009 8.14953 7.76421 8.31577 7.77348C8.45206 7.78116 8.41541 7.84424 8.48748 7.85271C8.55955 7.86095 8.64658 7.78779 8.69587 7.78355C8.77474 7.77692 8.87062 7.81846 8.89509 7.81786C9.37718 7.80555 9.80589 7.75738 10.271 7.74003C9.95514 7.7112 9.63966 7.68473 9.32586 7.65489C9.14771 7.72022 9.23639 7.65896 9.11912 7.63859C9.02632 7.62246 9.00386 7.73313 8.88186 7.72087C8.88196 7.72087 8.88206 7.72087 8.88216 7.72087C8.81926 7.71442 8.68293 7.63778 8.54897 7.66984C8.54421 7.67106 8.53228 7.7285 8.432 7.73051C8.20661 7.73495 7.86123 7.76441 7.60761 7.75212C7.53315 7.74849 7.54831 7.68817 7.46026 7.68071C7.39603 7.67531 7.32162 7.73108 7.22104 7.71861C7.09491 7.70268 7.0344 7.60674 6.9477 7.74003C6.94056 7.69244 6.94417 7.64603 6.93567 7.59965ZM8.84733 9.59883C8.86505 9.6041 9.10233 9.75289 9.03197 9.59401C8.71306 9.52505 8.36828 9.5593 8.03271 9.52059C8.14729 9.67768 8.34113 9.61576 8.5764 9.60427C8.5765 9.60427 8.5766 9.60427 8.5767 9.60427C8.58781 9.60373 8.54137 9.64479 8.60451 9.63735C8.63511 9.63372 8.75248 9.5708 8.84733 9.59883ZM10.9177 4.98608C10.8644 4.38555 10.8417 3.78581 10.8649 3.16808C10.8701 3.02732 10.9113 3.04059 10.9179 2.98272C10.9302 2.87637 10.8858 2.69788 10.8858 2.67286C10.8852 2.51757 10.9573 2.57826 10.96 2.55735C10.9856 2.35387 10.9262 2.37924 10.9056 2.24056L11.3558 2.69084C11.3357 2.69384 11.3121 2.69603 11.2839 2.69703C10.9938 2.70732 10.6216 2.69264 10.272 2.68861C10.1493 2.687 10.2039 2.63217 9.93901 2.63679C9.75133 2.64001 9.17562 2.7025 8.91053 2.63575C8.90897 2.61055 8.94244 2.58272 8.95652 2.55671C8.57651 2.66176 8.44051 2.65715 7.90175 2.63154C7.81652 2.62751 7.73581 2.67066 7.58567 2.65473C7.4356 2.63879 7.42925 2.57226 7.12745 2.57307C7.02041 2.57351 6.95545 2.62043 6.79131 2.62244C6.32446 2.62829 5.43532 2.57002 5.05216 2.568C4.29757 2.56397 3.887 2.64404 3.21686 2.61622C3.16525 2.6142 3.27862 2.56278 3.18401 2.56177C3.08861 2.56077 2.98925 2.62889 2.96579 2.6305C2.77114 2.64398 2.40995 2.59321 2.18917 2.57398L2.52259 2.24056C2.5168 2.3071 2.51387 2.36088 2.51642 2.39351C2.54345 2.73602 2.57347 2.3985 2.58637 2.87317C2.59865 3.32515 2.50996 3.94918 2.49262 4.39722C2.47247 4.91641 2.6013 5.08383 2.4668 5.47481C2.47467 6.84793 2.47948 8.22652 2.48633 9.60119C2.45952 9.59729 2.4327 9.59274 2.40589 9.58805C2.42444 9.69675 2.44302 9.80547 2.46137 9.91417C2.44141 9.89775 2.42143 9.88217 2.40168 9.86575C2.47869 10.3763 2.51842 10.8313 2.49726 11.4278C2.49686 11.4395 2.4434 11.4088 2.44202 11.4185C2.43194 11.553 2.47306 11.7033 2.46338 11.8214C2.44019 12.1068 2.32362 12.5916 2.46619 12.3782C2.43675 13.0436 2.48496 13.8255 2.45734 14.4597C2.44545 14.7341 2.36095 14.8163 2.35608 14.9476C2.35125 15.0789 2.42385 15.0121 2.42664 15.0587C2.42693 15.0637 2.42721 15.0688 2.42749 15.0739L2.18917 14.8356C2.47027 14.8204 2.91545 14.8247 2.9631 14.9045C3.01939 14.8721 3.07895 14.8392 3.13602 14.8066C3.10257 14.8967 3.96762 14.8594 4.19459 14.8616C4.23603 14.862 4.24181 14.9015 4.27309 14.9011C4.62169 14.8961 4.70693 14.8342 5.00555 14.8136C5.11033 14.8063 4.94784 14.8759 5.21685 14.8459C5.24029 14.8432 5.22783 14.7807 5.54918 14.7811C6.06216 14.7817 7.0435 14.7569 7.65422 14.7878C7.70426 14.7902 7.55191 14.8584 7.78079 14.8425C7.86368 14.8368 7.82397 14.7884 8.02494 14.788C8.8038 14.786 9.63428 14.8416 10.4288 14.7955C10.3998 14.8501 10.1168 14.9114 10.5422 14.8771C10.6102 14.8715 10.5594 14.8227 10.5899 14.8209C10.837 14.8068 11.0512 14.8416 11.3186 14.8229C11.3326 14.8219 11.3448 14.8198 11.3558 14.8171L11.0991 15.0739C11.0865 15.0227 11.0592 14.995 11.0518 14.914C11.0383 14.7686 11.0929 14.7042 11.0697 14.5353C11.0332 14.2712 10.9814 14.2304 11.083 13.9028C11.0812 13.3759 11.0776 12.8497 11.0744 12.3239C11.0659 12.0251 11.193 11.6847 11.4175 11.4689C11.6318 11.2427 11.9725 11.1128 12.2725 11.1196C12.5725 11.1122 12.9139 11.2417 13.1284 11.468C13.3534 11.684 13.4804 12.0252 13.4708 12.3239C13.4669 12.6838 13.461 13.0436 13.4523 13.4036C13.4813 13.9385 13.5138 14.432 13.5248 14.9896C13.5255 15.0219 13.5233 15.0491 13.5196 15.0739C13.5016 15.1916 13.4659 15.2583 13.4413 15.5011C13.4509 15.5666 13.345 16.0749 13.1737 16.0609C13.1193 16.1821 13.0715 16.2515 13.008 16.3454C13.0773 16.2907 13.146 16.2282 13.2081 16.1654C13.0997 16.3276 12.9878 16.466 12.8732 16.5913C12.6955 16.7849 12.498 16.9589 12.2512 17.0858C11.9469 17.2263 12.1473 17.0855 11.9577 17.1535C11.7669 17.21 11.6699 17.2418 11.4259 17.181C11.4019 17.1924 11.3789 17.2011 11.3558 17.2076C11.2203 17.251 11.1023 17.2066 10.836 17.2046C10.8032 17.2044 10.6133 17.2366 10.4546 17.2302C10.3405 17.2256 10.3066 17.1738 10.1254 17.1818C10.0957 17.183 9.71238 17.2472 9.59038 17.253C9.40035 17.2623 9.09837 17.1959 9.06161 17.1951C8.5276 17.1834 8.32176 17.249 7.94252 17.1411C7.86589 17.2052 7.54943 17.2427 7.29376 17.2365C6.9708 17.2286 6.32322 17.0975 6.23484 17.2361C5.8611 17.1744 5.90167 17.2125 5.45846 17.2137C5.055 17.2149 3.98682 17.1619 3.65983 17.1695C3.33296 17.177 3.49223 17.254 3.36242 17.2643C3.14995 17.2814 3.26472 17.2246 3.1193 17.2254C2.78995 17.2273 2.49513 17.2347 2.18917 17.2503C2.10068 17.2541 2.01021 17.2538 1.91736 17.248C1.89694 17.2054 1.87628 17.1622 1.85779 17.119C1.83316 17.1287 1.80812 17.138 1.78267 17.1468C1.68695 17.1288 1.58033 17.1011 1.49488 17.07C2.12253 17.3903 1.03676 17.0536 0.70449 16.5586C0.646121 16.4918 0.597598 16.4306 0.560299 16.3842C0.31039 16.1158 -0.00449112 15.5122 0.000387788 15.0803C0.000287414 15.0781 0.000212073 15.0759 0.000160217 15.0739C-0.00220516 14.9944 0.0390718 15.0516 0.0381004 15.034C0.0257993 14.8229 -0.00365353 14.7908 0.000379592 14.507C0.0026001 14.3569 0.0566082 14.2036 0.0576322 14.0574C0.0648916 12.9838 0.0106252 11.9476 0.00477427 10.881C0.00376609 10.6996 0.069697 10.5431 0.0711214 10.3906C0.0731375 10.1725 0.0191554 10.0349 0.0183245 9.83005C0.0175179 9.62596 0.0820312 9.3318 0.072159 9.19338C0.0624795 9.05497 -3.71337e-05 9.29182 0.0171037 9.03845C0.0249809 8.92208 0.071536 9.12762 0.0729525 8.98381C0.0773887 8.53497 0.0197323 7.90159 0.0755771 7.4238C0.0616669 7.44491 0.0491481 7.47373 0.035842 7.49953C0.041288 6.99047 0.0747658 6.54074 0.0796055 6.01525C0.0814046 5.83148 0.0405331 5.50007 0.040725 5.31945C0.0409266 5.13885 0.0852742 5.05668 0.0865027 4.91207C0.0871076 4.85264 0.0473649 4.87587 0.0481715 4.83599C0.0586668 4.33718 0.129412 4.06349 0.121355 3.54122C0.114725 3.11035 0.1083 2.67645 0.102018 2.24056C0.0843401 1.7044 0.313275 1.13358 0.700586 0.751978C1.07029 0.357483 1.64072 0.109086 2.18917 0.113577C2.73902 0.106156 3.28849 0.0987564 3.8356 0.0912621C3.91374 0.0902085 3.96633 0.038434 4.08044 0.0307745C4.25622 0.0189182 4.26483 0.0646853 4.28828 0.066298C4.4415 0.0763701 4.37901 0.0340095 4.58466 0.0340095C5.03743 0.0340098 5.76782 0.0715387 6.21902 0.0683122C7.25905 0.0608508 8.13331 0.0205015 9.153 0.000133991C9.22651 -0.00147924 9.17666 0.0598149 9.30413 0.0606216C10.1593 0.0667564 10.3727 0.0138718 11.3558 0.0230363C11.4145 0.0235024 11.4758 0.0261665 11.5398 0.0318448C11.9536 0.0585072 12.5129 0.269093 12.9068 0.689621C13.2894 1.06275 13.551 1.67285 13.5297 2.24056C13.5205 2.8952 13.5127 3.5351 13.5093 4.05065C13.5092 4.05065 13.5091 4.05065 13.5089 4.05065C13.5858 4.33025 13.5975 4.66559 13.5704 4.99056C13.559 5.19508 13.4889 5.4093 13.3723 5.57002C13.454 5.37899 13.4776 5.17411 13.4633 4.99056C13.3784 4.06869 13.3425 3.1583 13.3298 2.24056C13.3319 1.73056 13.1158 1.20967 12.7469 0.849489C12.3979 0.484688 11.8781 0.254942 11.3558 0.259807C10.8188 0.255358 10.2734 0.251963 9.71601 0.254231C7.27432 0.264028 4.6952 0.412962 2.18917 0.439678C1.76053 0.439922 1.34148 0.594676 1.02281 0.872313C0.982376 0.906798 0.946379 0.936907 0.9129 0.964292C0.779795 1.07559 0.67827 1.13652 0.588676 1.30143C0.570979 1.3359 0.663612 1.27589 0.609158 1.37978C0.474652 1.64387 0.411087 1.94101 0.414251 2.24056C0.424137 3.60623 0.353392 5.01401 0.379052 6.32961C0.387522 6.76438 0.442982 6.83255 0.457302 7.21492C0.431095 7.1477 0.403691 7.10374 0.377282 7.04512C0.29541 8.79052 0.331909 10.5384 0.320213 12.3065C0.319596 12.3862 0.265343 12.3964 0.263327 12.4801C0.259101 12.6474 0.31879 12.8077 0.320823 12.9539C0.323445 13.1447 0.280279 13.1777 0.283103 13.3537C0.284547 13.4395 0.32603 13.4139 0.318992 13.6006C0.318387 13.6162 0.274865 13.6264 0.280478 13.7507C0.296004 14.0908 0.332514 14.786 0.343407 15.0676C0.343489 15.0697 0.343568 15.0718 0.343644 15.0739C0.353568 15.4301 0.395379 15.7266 0.45179 15.8579C0.616514 16.2012 0.680701 16.1551 0.885406 16.3777C0.887181 16.3794 0.88897 16.3812 0.890772 16.383C1.23022 16.7299 1.70807 16.9304 2.18917 16.929C3.89799 16.9491 5.58008 16.9958 7.35393 16.9953C7.49635 16.9952 8.02309 16.9205 8.28662 16.9235C8.37494 16.9247 8.8368 16.9445 8.90599 16.9461C9.18672 16.9523 9.42932 16.9975 9.58415 17.007C9.88442 17.0255 10.2199 16.955 10.3834 16.9479C10.6703 16.9354 11.18 16.9447 11.3005 16.9465C11.3207 16.9468 11.3391 16.9475 11.3558 16.9486C11.5836 16.9558 11.5209 17.0347 11.722 16.9858C11.7843 16.9657 11.7085 16.9218 11.9216 16.8619C12.0974 16.8047 12.1867 16.8141 12.3065 16.7578C12.4296 16.7013 12.5673 16.4916 12.6219 16.4388C12.6399 16.4227 12.657 16.4072 12.6737 16.3918C12.9299 16.14 13.093 15.999 13.2212 15.5779C13.2468 15.4841 13.2835 15.2989 13.2793 15.0739C13.2692 14.4366 13.2458 13.4642 13.2321 13.359C13.1501 12.7287 13.1868 13.7784 13.1841 13.8376C13.1681 14.1574 13.1367 14.1107 13.1968 14.4297C13.1173 14.5521 13.125 14.8049 13.1423 15.0739C13.1771 15.4231 13.0667 15.8224 12.8849 15.8788C12.8919 16.0914 12.7699 16.2317 12.6239 16.3419C12.5702 16.3827 12.5123 16.4207 12.4518 16.4596C12.1296 16.6431 12.4119 16.5559 12.1739 16.6959C12.0766 16.7539 11.7615 16.7916 11.607 16.8133C11.5082 16.8318 11.4455 16.8575 11.3558 16.8745C11.303 16.8841 11.242 16.8916 11.1604 16.8927C10.764 16.8979 10.4449 16.8741 10.1119 16.813C10.0509 16.84 9.99398 16.8671 9.93378 16.8941C9.70388 16.865 9.47307 16.8362 9.24317 16.8073C9.27992 16.8309 9.31673 16.8547 9.35349 16.8783C9.28624 16.8818 9.21878 16.885 9.15153 16.8882C8.9279 16.8527 8.71432 16.8199 8.48443 16.7832C7.85977 16.9197 8.04106 16.8015 7.69387 16.7838C7.34677 16.7661 7.14587 16.8451 6.87773 16.8455C6.51646 16.8461 6.35056 16.856 5.98619 16.8503C5.77505 16.8471 5.4169 16.7709 5.71091 16.8916C5.0517 16.9013 4.14916 16.935 3.55954 16.886C3.38545 16.8717 3.61758 16.8337 3.58789 16.829C3.44014 16.8066 3.31566 16.8682 3.16322 16.8594C2.9099 16.8447 2.41651 16.7967 2.21704 16.7854C2.20791 16.7849 2.19861 16.7844 2.18917 16.7841C1.92055 16.7888 1.51703 16.7319 1.47441 16.71C1.23132 16.632 1.21671 16.525 1.15073 16.4846C1.06321 16.4259 0.995052 16.3713 0.940389 16.3227C0.763405 16.1609 0.722641 16.0741 0.757312 15.9306C0.633641 15.8874 0.369015 15.4333 0.475412 15.2962C0.4313 15.3006 0.398481 15.2054 0.387935 15.0739C0.37659 14.9326 0.374956 14.7549 0.363122 14.6204C0.389741 14.5719 0.416199 14.5226 0.443019 14.4741C0.278473 13.9291 0.397999 12.8438 0.417567 12.1267C0.41797 12.1087 0.349059 12.0765 0.364587 11.9686C0.36586 11.9618 0.396828 11.9729 0.400843 11.9005C0.413756 11.662 0.49111 10.7519 0.491788 10.6472C0.494409 10.2617 0.442976 10.1943 0.438136 9.95973C0.431684 9.65089 0.4781 9.60625 0.471462 9.31235C0.468438 9.17475 0.407345 9.04955 0.41598 8.83303C0.421019 8.70484 0.468997 8.69215 0.472866 8.59061C0.48678 8.22934 0.456502 7.964 0.51901 7.64339C0.36639 7.55972 0.478882 7.4065 0.490384 7.24777C0.537368 6.60343 0.472875 5.80039 0.486783 5.24752C0.513373 4.19929 0.558561 3.22322 0.594679 2.24056C0.608956 1.81597 0.783377 1.43619 1.09364 1.14503C1.19608 1.04731 1.30728 0.962698 1.42732 0.894975C1.62673 0.791461 1.65406 0.697406 1.90373 0.651869C1.98713 0.639876 2.07612 0.661653 2.18917 0.67764C2.23468 0.683317 2.28415 0.6872 2.33887 0.687409C2.50851 0.688205 2.75158 0.659999 2.96343 0.660187C3.01973 0.660187 3.02475 0.712214 3.10764 0.712618C3.7363 0.715635 4.3502 0.678696 4.98512 0.65329C5.22044 0.643836 5.36598 0.712771 5.3261 0.592802C5.41602 0.622241 5.50345 0.647875 5.58789 0.676911C5.91164 0.60129 6.17604 0.680095 6.61396 0.660736C6.66117 0.65843 6.99181 0.575486 7.17938 0.635345C7.19266 0.592605 7.16354 0.556313 7.16901 0.517605C7.35431 0.501273 7.63902 0.550637 7.76417 0.555692C7.88913 0.560727 7.97279 0.505208 8.0104 0.504665C8.1535 0.503253 8.12014 0.576272 8.13109 0.577482C8.79803 0.647444 8.72782 0.608544 9.13052 0.49905C9.23141 0.47143 9.91608 0.551647 10.0546 0.465174C10.0608 0.500448 10.0226 0.531491 10.0117 0.565153C10.2174 0.574227 10.4246 0.583545 10.6311 0.592619C10.5873 0.558741 10.5347 0.524829 10.4948 0.490749C10.8129 0.512968 11.0905 0.472939 11.3558 0.453088C11.4403 0.44664 11.524 0.447461 11.6062 0.458759C11.798 0.489908 11.7561 0.562551 11.8655 0.574946C11.8871 0.57827 11.8664 0.518417 11.9301 0.534712C12.2669 0.629917 12.4447 0.78984 12.617 0.979373C12.7099 1.08514 12.8016 1.20555 12.8928 1.36736C13.0066 1.57725 13.1827 1.77215 13.1449 2.1444C13.1437 2.15388 13.1377 2.18972 13.1301 2.24056C13.1111 2.37139 13.0932 2.60193 13.1768 2.76176C13.1399 2.83292 13.1205 2.89568 13.0895 2.94885C13.2631 3.40162 13.0929 3.2765 13.0526 3.8888C13.0396 4.08511 13.0464 4.56888 13.0578 4.99056C13.069 5.22216 12.9772 5.41007 12.9073 5.50229C12.8867 5.53113 12.8702 5.55491 12.8575 5.57558C12.8042 5.6592 12.825 5.69461 12.8042 5.71404C12.6326 5.84437 12.6015 5.7804 12.4241 5.83001C12.3774 5.84012 12.3267 5.85102 12.2725 5.85959C12.1152 5.88755 11.9185 5.88071 11.7847 5.79083C11.6644 5.70296 11.7805 5.70604 11.6552 5.60791C11.6448 5.59891 11.6329 5.58887 11.6194 5.57731C11.586 5.54351 11.613 5.7033 11.4878 5.48411C11.4462 5.45007 11.4101 5.06121 11.4491 4.99056C11.4701 5.12374 11.5687 5.3877 11.7492 5.51386C11.8322 5.57983 11.9131 5.61535 11.9662 5.63307C12.0597 5.66481 12.162 5.6753 12.2725 5.66566C12.4568 5.65004 12.6064 5.57868 12.7231 5.44121C12.8325 5.31297 12.8772 5.17084 12.8659 4.99056C12.8267 4.14733 12.7955 3.21744 12.7709 2.24056C12.7607 1.86006 12.6153 1.53085 12.3328 1.26358C12.0592 1.00044 11.7336 0.871319 11.3558 0.879019C8.23757 0.919115 5.03462 0.910379 2.84619 0.890235C2.57768 0.887859 2.37338 0.852845 2.18917 0.82937C2.12312 0.81889 2.06018 0.814458 1.99875 0.819897C1.80278 0.844815 1.97581 0.878599 1.8085 0.912152C1.64628 0.952884 1.51285 0.967272 1.37158 1.06177C1.30241 1.10908 1.23601 1.16339 1.17257 1.22396C0.885684 1.49454 0.728603 1.84077 0.722467 2.24056C0.70711 3.1059 0.693756 3.9703 0.68619 4.82665C0.682964 5.19966 0.736423 5.49777 0.736423 5.83715C0.736392 5.96922 0.667457 5.97331 0.668062 6.06712C0.673513 7.07818 0.739851 8.0135 0.731785 9.01909C0.728348 9.43663 0.670275 9.88778 0.664827 10.3014C0.66019 10.6423 0.699896 10.9957 0.700717 11.3022C0.701321 11.4686 0.648819 11.5564 0.644685 11.6166C0.630972 11.8262 0.695102 11.7529 0.695102 11.86C0.694885 12.1556 0.617459 12.3026 0.623505 12.5794C0.625924 12.688 0.675264 12.674 0.682955 12.8318C0.692632 13.0319 0.647115 12.9579 0.645479 13.1009C0.645277 13.1095 0.680556 13.0814 0.681979 13.1572C0.691255 13.6452 0.719067 14.2544 0.716648 14.7252C0.716069 14.8416 0.714587 14.9579 0.712403 15.0739C0.70005 15.479 0.833815 15.8509 1.11141 16.1517C1.31709 16.3793 1.57268 16.5377 1.85707 16.6C2.04846 16.637 2.00342 16.5784 2.06375 16.583C2.10933 16.5847 2.1506 16.5859 2.18917 16.5869C2.43534 16.5924 2.57273 16.629 2.88241 16.6123C2.94343 16.6091 3.18905 16.5454 3.42363 16.5616C3.55028 16.5702 3.69407 16.61 3.80196 16.6192C3.90984 16.6285 3.92714 16.57 4.05683 16.57C4.29298 16.5698 4.22431 16.6103 4.56208 16.6031C4.69813 16.6002 5.15241 16.5448 5.50273 16.549C6.07514 16.5559 6.78455 16.6065 7.4594 16.6073C7.69088 16.6077 7.9882 16.5476 8.34714 16.547C8.78583 16.5462 9.59414 16.5599 10.0438 16.5607C10.2737 16.5611 10.2903 16.6241 10.3176 16.6267C10.4935 16.6442 10.4225 16.5739 10.5404 16.5766C10.7022 16.5805 10.8533 16.6323 11.0003 16.6358C11.0941 16.638 11.109 16.5861 11.1293 16.5857C11.2057 16.584 11.2811 16.5825 11.3558 16.5811C11.7756 16.5733 12.1246 16.4217 12.4124 16.1305C12.5092 16.0329 12.5935 15.9257 12.6608 15.8072C12.7866 15.5871 12.8453 15.3379 12.8421 15.0739C12.8341 14.1585 12.8248 13.2415 12.8158 12.3239C12.8122 12.1586 12.7637 12.0451 12.6566 11.9398C12.5477 11.8359 12.4347 11.7936 12.2725 11.7945C12.1101 11.7981 12.0012 11.8446 11.8978 11.9492C11.796 12.0557 11.755 12.1642 11.7553 12.3239C11.7622 13.2413 11.7672 14.1583 11.7687 15.0739L11.7641 15.4913L11.3558 15.4868C10.4482 15.4883 9.54198 15.4865 8.63809 15.4797C8.30262 15.4773 8.29 15.4119 7.9952 15.4222C7.70039 15.4323 7.4156 15.5734 7.17318 15.4176C7.16536 15.449 7.16613 15.4714 7.15831 15.5001C6.54917 15.4557 5.93996 15.5016 5.34411 15.5073C4.90312 15.5115 4.51205 15.5065 4.10467 15.5031C3.74358 15.4998 3.77476 15.445 3.46213 15.5166C3.03873 15.5044 2.6141 15.4963 2.18917 15.4895L1.76902 15.4849L1.77355 15.0739C1.79167 13.9394 1.80065 12.8028 1.85478 11.682C1.73762 11.3207 1.81144 10.9744 1.82878 10.4747C1.83098 10.4131 1.78823 10.4792 1.79186 10.2963C1.79632 10.0665 1.86163 9.94763 1.85802 9.56073C1.85701 9.45829 1.7846 8.69955 1.8217 8.41882C1.8588 8.13809 1.88058 7.73145 1.91607 7.43979C1.88804 7.48123 1.86123 7.53372 1.8336 7.57985C1.82877 7.4344 1.8241 7.28817 1.81926 7.14272C1.85294 7.12161 1.88664 7.10046 1.92052 7.08013C1.88846 6.99568 1.85679 6.91118 1.82433 6.82595C1.99733 6.64221 1.9409 6.83059 1.89714 6.42168C1.87537 6.2168 1.90559 6.05416 1.88805 5.84381C1.8816 5.76801 1.83066 5.71952 1.82414 5.63597C1.80842 5.43113 1.87853 5.55052 1.87816 5.42397C1.87756 5.29651 1.80054 5.11352 1.83483 4.88518C1.97212 5.12356 1.92734 4.43456 1.82067 4.40172C1.82047 4.31969 1.8249 4.25094 1.82189 4.16033C2.0913 4.244 1.90011 3.81449 1.86321 3.64401C1.82636 3.47365 1.89875 3.48054 1.89592 3.44067C1.88805 3.3258 1.858 3.40945 1.85698 3.32897C1.85277 2.95727 1.87295 2.6007 1.88694 2.24056L1.89031 1.93504L2.18917 1.93834C2.34576 1.94442 2.50302 1.94933 2.66251 1.95055C2.73821 1.95112 2.67107 1.91022 2.75934 1.91423C2.8477 1.91827 2.93238 1.95899 3.06297 1.95617C3.09801 1.95545 3.10902 1.91952 3.16361 1.91948C4.30765 1.9211 5.39392 1.95171 6.56065 1.95635C6.66621 1.95675 6.74909 1.89286 6.95316 1.89507C7.15722 1.89729 7.46686 1.95494 7.7202 1.9594C7.78745 1.96061 7.80569 1.90739 7.89484 1.9088C8.1982 1.91365 8.45952 1.95698 8.77462 1.96404C9.30707 1.97593 9.86456 1.94346 10.4048 1.9749C10.5073 1.98075 10.4909 2.02514 10.6386 2.03765C10.8935 2.05923 10.7976 1.9945 10.8492 1.98583C11.0181 1.95782 11.0711 2.04385 11.2345 2.02172C11.2594 2.0183 11.2238 1.96728 11.2462 1.96648C11.2869 1.96544 11.3231 1.96617 11.3558 1.96815L11.6312 1.97119L11.6282 2.24056C11.6133 2.48725 11.5267 2.53964 11.5833 2.86549C11.5146 3.19372 11.4912 2.64547 11.4547 2.58917C11.366 2.45167 11.2617 2.81515 11.2282 3.02941C11.1994 3.21391 11.2546 3.21255 11.2547 3.28601C11.2549 3.67462 11.2654 4.25335 11.2392 4.54896C11.2234 4.72804 11.2004 4.40525 11.1823 4.49674C11.1641 4.58742 11.2057 4.64613 11.1603 4.73916C11.1149 4.83222 10.9814 5.02206 10.9177 4.98608ZM10.0916 14.933C9.49572 15.1508 7.91547 15.128 7.06701 15.1072C6.36322 15.0899 5.75649 14.9221 5.90192 15.1653C6.66272 15.1669 7.27811 15.1425 8.0827 15.15C8.16637 15.1508 8.66541 15.1733 8.83902 15.1774C8.93674 15.1796 8.93987 15.2198 9.07279 15.2194C9.10173 15.2192 9.2621 15.1667 9.32075 15.1681C9.52166 15.1727 10.1192 15.2533 10.2026 15.251C10.434 15.2441 10.3452 15.1817 10.445 15.1704C10.7805 15.1328 10.8175 15.2266 11.1498 15.1962C11.1823 15.1932 11.2557 15.1675 11.3558 15.1465L11.4276 15.1473L11.4284 15.0739C11.411 14.9906 11.3968 14.8889 11.4016 14.7771C11.4061 14.677 11.4483 14.5065 11.4463 14.4299C11.4354 14.0123 11.3795 13.5462 11.3888 13.1638C11.3964 12.8503 11.4595 12.9346 11.468 12.7689C11.4754 12.6188 11.4162 12.4404 11.4017 12.3239C11.4002 12.3122 11.3994 12.3012 11.3993 12.2908C11.3921 12.1101 11.5162 11.9309 11.5441 11.892C11.5792 11.8306 11.6225 11.7743 11.6718 11.7232C11.8289 11.5569 12.0468 11.4698 12.2725 11.466C12.5038 11.4568 12.7317 11.5366 12.8989 11.6975C13.071 11.8544 13.1692 12.0845 13.1727 12.3239C13.1795 12.5748 13.1855 12.8277 13.1897 13.0855C13.1998 12.8315 13.2096 12.5776 13.2193 12.3239C13.2326 12.0767 13.1444 11.8148 12.9667 11.6297C12.8037 11.4484 12.5575 11.3357 12.3107 11.3222C12.2973 11.3237 12.2847 11.3254 12.2725 11.3271C11.8938 11.4183 12.0811 11.3274 11.8012 11.4127C11.6732 11.4695 11.632 11.5496 11.5834 11.6348C11.5486 11.6985 11.5079 11.7669 11.4452 11.8698C11.4453 11.8696 11.4454 11.8694 11.4455 11.8692C11.3942 11.9506 11.2944 12.1132 11.2827 12.3239C11.2758 12.4214 11.2744 12.5247 11.2851 12.6274C11.2863 12.6384 11.3438 12.6658 11.3458 12.8965C11.3502 13.4149 11.3797 14.2093 11.3674 14.7926C11.3642 14.9455 11.3158 14.9341 11.3001 15.0739L11.3558 15.0181C11.339 15.0163 11.32 15.0148 11.2982 15.014C11.1504 15.0086 10.9793 15.0644 10.748 15.0519C10.4579 15.036 10.3187 14.9401 10.1193 15.0734C10.1028 15.0258 10.1111 14.9794 10.0916 14.933ZM2.21411 6.95183C2.21938 6.91108 2.36816 6.36533 2.20929 6.52716C2.14032 7.26066 2.17458 8.05369 2.13586 8.82551C2.29295 8.56198 2.23104 8.11614 2.21954 7.57501C2.21954 7.57478 2.21954 7.57454 2.21954 7.57431C2.21901 7.54875 2.26006 7.65556 2.25262 7.51034C2.24899 7.43996 2.18608 7.17 2.21411 6.95183Z" fill="#F3832D"/>
</svg>
