<svg width="211" height="45" viewBox="0 0 211 45" fill="none" xmlns="http://www.w3.org/2000/svg">
<rect width="211" height="45" rx="10" fill="#F3832D"/>
<path d="M30.48 22.92L30.528 27.72C30.528 28.68 30.128 29.16 29.328 29.16C28.8587 29.16 28.4907 28.9413 28.224 28.504L24.032 21.48C24.0107 21.736 24 22.1627 24 22.76L24.112 27.432C24.112 28.584 23.7067 29.16 22.896 29.16C22.0853 29.16 21.68 28.584 21.68 27.432L21.808 23.08C21.808 22.6853 21.7867 21.9653 21.744 20.92C21.7013 19.8747 21.68 18.9893 21.68 18.264C21.68 17.3147 22.0747 16.84 22.864 16.84C23.408 16.84 23.8027 17.0533 24.048 17.48L28.32 24.808L28.304 22.92L28.176 18.568C28.176 17.416 28.5813 16.84 29.392 16.84C30.2027 16.84 30.608 17.416 30.608 18.568L30.48 22.92ZM38.8104 27.224C39.7597 27.224 40.549 26.7973 41.1784 25.944C41.8077 25.0907 42.1224 24.104 42.1224 22.984C42.1224 21.8533 41.8077 20.872 41.1784 20.04C40.5597 19.1973 39.7704 18.776 38.8104 18.776C37.861 18.776 37.0717 19.1973 36.4424 20.04C35.8237 20.872 35.5144 21.8533 35.5144 22.984C35.5144 24.104 35.829 25.0907 36.4584 25.944C37.0877 26.7973 37.8717 27.224 38.8104 27.224ZM38.8264 16.76C40.4157 16.76 41.7384 17.368 42.7944 18.584C43.861 19.7893 44.3944 21.2613 44.3944 23C44.3944 24.728 43.861 26.2 42.7944 27.416C41.7277 28.632 40.3997 29.24 38.8104 29.24C37.2317 29.24 35.909 28.632 34.8424 27.416C33.7757 26.2 33.2424 24.728 33.2424 23C33.2424 21.2613 33.7757 19.7893 34.8424 18.584C35.9197 17.368 37.2477 16.76 38.8264 16.76ZM46.3023 29.048L46.1423 27.832C46.1423 27.4693 46.2596 27.1493 46.4943 26.872C46.7396 26.5947 47.0436 26.456 47.4062 26.456C47.7796 26.456 48.0729 26.584 48.2863 26.84C48.4996 27.096 48.6063 27.4053 48.6063 27.768C48.6063 28.4933 48.3769 29.24 47.9183 30.008C47.4596 30.776 47.0383 31.16 46.6543 31.16C46.4089 31.16 46.2276 31.0853 46.1103 30.936C45.9929 30.7867 45.9342 30.6267 45.9342 30.456C45.9342 30.296 45.9929 30.072 46.1103 29.784C46.2383 29.5067 46.3023 29.2613 46.3023 29.048ZM65.4406 25.464C65.4406 26.616 64.9553 27.5333 63.9846 28.216C63.0246 28.8987 61.8193 29.24 60.3686 29.24C58.9286 29.24 57.782 29.0907 56.9286 28.792C56.086 28.4827 55.6646 28.0933 55.6646 27.624C55.6646 27.1227 55.8993 26.8293 56.3686 26.744C56.4006 25.6773 56.4166 24.4133 56.4166 22.952C56.4166 21.48 56.4006 20.3387 56.3686 19.528C55.9313 19.3253 55.7126 19.0427 55.7126 18.68C55.7126 18.3173 55.8833 18.0133 56.2246 17.768C56.5766 17.512 57.0033 17.3147 57.5046 17.176C58.5073 16.8987 59.3926 16.76 60.1606 16.76C60.9286 16.76 61.6113 16.8667 62.2086 17.08C62.8166 17.2827 63.2913 17.5547 63.6326 17.896C64.294 18.5573 64.6246 19.2613 64.6246 20.008C64.6246 20.9253 64.214 21.7307 63.3926 22.424C63.99 22.7547 64.4806 23.192 64.8646 23.736C65.2486 24.28 65.4406 24.856 65.4406 25.464ZM58.6886 27.112C59.094 27.1867 59.6646 27.224 60.4006 27.224C61.1473 27.224 61.7926 27.0693 62.3366 26.76C62.8806 26.44 63.1526 25.976 63.1526 25.368C63.1526 24.92 62.9286 24.5413 62.4806 24.232C62.0433 23.9227 61.5633 23.7147 61.0406 23.608C60.4753 23.7573 60.0006 23.832 59.6166 23.832C59.2433 23.832 58.9073 23.8213 58.6086 23.8C58.63 25.656 58.6566 26.76 58.6886 27.112ZM62.4486 20.024C62.4486 19.704 62.2566 19.416 61.8726 19.16C61.4993 18.904 60.9926 18.776 60.3526 18.776C59.7233 18.776 59.1526 18.84 58.6406 18.968V21.608C59.046 21.5653 59.414 21.544 59.7446 21.544C60.086 21.544 60.454 21.5867 60.8486 21.672C61.1793 21.6293 61.526 21.464 61.8886 21.176C62.262 20.8773 62.4486 20.4933 62.4486 20.024ZM75.9133 16.76C76.3506 16.76 76.6919 16.9413 76.9373 17.304C77.1933 17.656 77.3213 18.104 77.3213 18.648C77.3213 19.1813 77.1719 20.68 76.8733 23.144C76.8733 23.72 76.9319 24.4827 77.0493 25.432C77.1773 26.3707 77.3426 26.9093 77.5453 27.048C77.7373 27.176 77.8759 27.256 77.9613 27.288C78.0466 27.32 78.1053 27.3467 78.1373 27.368C78.1906 27.4213 78.2173 27.528 78.2173 27.688C78.2173 28.0933 78.0786 28.4507 77.8013 28.76C77.5239 29.0693 77.1613 29.224 76.7133 29.224C76.2759 29.224 75.9133 29.0373 75.6253 28.664C75.3373 28.28 75.1399 27.7947 75.0333 27.208C74.0413 28.5627 72.8786 29.24 71.5453 29.24C70.8306 29.24 70.1906 29.0587 69.6253 28.696C69.0599 28.3227 68.6119 27.8373 68.2812 27.24C67.6093 26.024 67.2733 24.6747 67.2733 23.192C67.2733 21.4427 67.7426 19.9333 68.6813 18.664C69.6199 17.3947 70.8359 16.76 72.3293 16.76C73.2039 16.76 74.0359 16.9947 74.8253 17.464C74.9853 16.9947 75.3479 16.76 75.9133 16.76ZM74.8573 23.288L74.7773 19.768C74.0199 19.1173 73.2039 18.792 72.3293 18.792C71.5933 18.792 70.9426 19.2133 70.3773 20.056C69.8226 20.888 69.5453 21.896 69.5453 23.08C69.5453 24.264 69.7266 25.2507 70.0893 26.04C70.4626 26.8187 70.9746 27.208 71.6253 27.208C72.2866 27.208 72.9533 26.7707 73.6253 25.896C74.3079 25.0213 74.7186 24.152 74.8573 23.288ZM89.7471 27.064C89.7471 27.5547 89.3418 28.04 88.5311 28.52C87.7205 29 86.7445 29.24 85.6031 29.24C84.0565 29.24 82.7711 28.632 81.7471 27.416C80.7231 26.2 80.2111 24.7227 80.2111 22.984C80.2111 21.2453 80.7231 19.7733 81.7471 18.568C82.7818 17.3627 84.0725 16.76 85.6191 16.76C86.6005 16.76 87.4805 16.9627 88.2591 17.368C89.0485 17.7733 89.4431 18.232 89.4431 18.744C89.4431 19.0533 89.3418 19.304 89.1391 19.496C88.9365 19.6773 88.6751 19.768 88.3551 19.768C88.0458 19.768 87.6565 19.608 87.1871 19.288C86.7178 18.9573 86.1951 18.792 85.6191 18.792C84.7125 18.792 83.9605 19.208 83.3631 20.04C82.7765 20.8613 82.4831 21.8427 82.4831 22.984C82.4831 24.1147 82.7765 25.1067 83.3631 25.96C83.9498 26.8027 84.6751 27.224 85.5391 27.224C86.4138 27.224 87.2351 26.9947 88.0031 26.536C88.3551 26.3227 88.6538 26.216 88.8991 26.216C89.1551 26.216 89.3578 26.296 89.5071 26.456C89.6671 26.616 89.7471 26.8187 89.7471 27.064ZM94.5328 18.6C94.5328 18.76 94.4954 19.736 94.4208 21.528C94.7834 21.5067 95.0234 21.496 95.1408 21.496C95.2581 21.496 95.5301 21.5227 95.9568 21.576C96.3728 21.224 96.7621 20.728 97.1248 20.088C97.4874 19.448 97.7808 18.7813 98.0048 18.088C98.2608 17.256 98.6608 16.84 99.2048 16.84C99.4928 16.84 99.7381 16.9413 99.9408 17.144C100.154 17.336 100.261 17.5813 100.261 17.88C100.261 18.5093 99.9994 19.3253 99.4768 20.328C98.9541 21.32 98.3674 22.168 97.7168 22.872C98.2288 23.9493 98.7994 24.9147 99.4288 25.768C100.058 26.6213 100.501 27.112 100.757 27.24C100.821 27.272 100.911 27.2987 101.029 27.32C101.157 27.3307 101.247 27.3627 101.301 27.416C101.354 27.4587 101.381 27.5547 101.381 27.704C101.381 28.056 101.247 28.3867 100.981 28.696C100.725 29.0053 100.399 29.16 100.005 29.16C99.6101 29.16 99.2474 29.032 98.9168 28.776C98.5968 28.5093 98.2074 28.0347 97.7488 27.352C97.3008 26.6693 96.6128 25.5173 95.6848 23.896C95.3008 23.96 95.0128 23.992 94.8208 23.992C94.6394 23.992 94.5061 23.9813 94.4208 23.96L94.5328 27.416C94.5328 28.5787 94.1274 29.16 93.3168 29.16C92.5061 29.16 92.1008 28.5787 92.1008 27.416L92.2288 22.92L92.1008 18.6C92.1008 17.4373 92.5061 16.856 93.3168 16.856C94.1274 16.856 94.5328 17.4373 94.5328 18.6ZM108.543 16.904L111.583 17L114.623 16.904C115.028 16.904 115.348 17 115.583 17.192C115.828 17.384 115.951 17.6453 115.951 17.976C115.951 18.3067 115.828 18.568 115.583 18.76C115.348 18.952 115.028 19.048 114.623 19.048L112.815 18.952C112.762 20.36 112.735 21.736 112.735 23.08L112.863 27.432C112.863 28.584 112.458 29.16 111.647 29.16C110.836 29.16 110.431 28.584 110.431 27.432L110.559 23.08C110.559 22.2053 110.522 20.8293 110.447 18.952L108.543 19.048C108.138 19.048 107.812 18.952 107.567 18.76C107.332 18.568 107.215 18.3067 107.215 17.976C107.215 17.6453 107.332 17.384 107.567 17.192C107.812 17 108.138 16.904 108.543 16.904ZM122.967 27.224C123.916 27.224 124.705 26.7973 125.335 25.944C125.964 25.0907 126.279 24.104 126.279 22.984C126.279 21.8533 125.964 20.872 125.335 20.04C124.716 19.1973 123.927 18.776 122.967 18.776C122.017 18.776 121.228 19.1973 120.599 20.04C119.98 20.872 119.671 21.8533 119.671 22.984C119.671 24.104 119.985 25.0907 120.615 25.944C121.244 26.7973 122.028 27.224 122.967 27.224ZM122.983 16.76C124.572 16.76 125.895 17.368 126.951 18.584C128.017 19.7893 128.551 21.2613 128.551 23C128.551 24.728 128.017 26.2 126.951 27.416C125.884 28.632 124.556 29.24 122.967 29.24C121.388 29.24 120.065 28.632 118.999 27.416C117.932 26.2 117.399 24.728 117.399 23C117.399 21.2613 117.932 19.7893 118.999 18.584C120.076 17.368 121.404 16.76 122.983 16.76ZM140.978 22.2L142.802 22.296L144.674 22.2C145.058 22.2 145.373 22.3227 145.618 22.568C145.863 22.8133 145.986 23.1227 145.986 23.496C145.986 25.2453 145.517 26.6427 144.578 27.688C143.65 28.7227 142.434 29.24 140.93 29.24C139.426 29.24 138.162 28.632 137.138 27.416C136.114 26.2 135.602 24.7227 135.602 22.984C135.602 21.2453 136.13 19.7733 137.186 18.568C138.242 17.3627 139.575 16.76 141.186 16.76C142.221 16.76 143.159 16.984 144.002 17.432C144.845 17.88 145.266 18.3653 145.266 18.888C145.266 19.1867 145.17 19.4267 144.978 19.608C144.786 19.7787 144.541 19.864 144.242 19.864C143.943 19.864 143.661 19.7787 143.394 19.608C143.127 19.4267 142.818 19.2453 142.466 19.064C142.114 18.8827 141.687 18.792 141.186 18.792C140.226 18.792 139.431 19.2027 138.802 20.024C138.183 20.8453 137.874 21.8267 137.874 22.968C137.874 24.1093 138.167 25.1067 138.754 25.96C139.351 26.8027 140.103 27.224 141.01 27.224C141.693 27.224 142.274 26.968 142.754 26.456C143.234 25.9333 143.522 25.2027 143.618 24.264C143.501 24.2533 143.213 24.248 142.754 24.248L140.978 24.328C140.583 24.328 140.263 24.232 140.018 24.04C139.773 23.8373 139.65 23.576 139.65 23.256C139.65 22.9253 139.773 22.6693 140.018 22.488C140.263 22.296 140.583 22.2 140.978 22.2ZM156.46 16.76C156.897 16.76 157.239 16.9413 157.484 17.304C157.74 17.656 157.868 18.104 157.868 18.648C157.868 19.1813 157.719 20.68 157.42 23.144C157.42 23.72 157.479 24.4827 157.596 25.432C157.724 26.3707 157.889 26.9093 158.092 27.048C158.284 27.176 158.423 27.256 158.508 27.288C158.593 27.32 158.652 27.3467 158.684 27.368C158.737 27.4213 158.764 27.528 158.764 27.688C158.764 28.0933 158.625 28.4507 158.348 28.76C158.071 29.0693 157.708 29.224 157.26 29.224C156.823 29.224 156.46 29.0373 156.172 28.664C155.884 28.28 155.687 27.7947 155.58 27.208C154.588 28.5627 153.425 29.24 152.092 29.24C151.377 29.24 150.737 29.0587 150.172 28.696C149.607 28.3227 149.159 27.8373 148.828 27.24C148.156 26.024 147.82 24.6747 147.82 23.192C147.82 21.4427 148.289 19.9333 149.228 18.664C150.167 17.3947 151.383 16.76 152.876 16.76C153.751 16.76 154.583 16.9947 155.372 17.464C155.532 16.9947 155.895 16.76 156.46 16.76ZM155.404 23.288L155.324 19.768C154.567 19.1173 153.751 18.792 152.876 18.792C152.14 18.792 151.489 19.2133 150.924 20.056C150.369 20.888 150.092 21.896 150.092 23.08C150.092 24.264 150.273 25.2507 150.636 26.04C151.009 26.8187 151.521 27.208 152.172 27.208C152.833 27.208 153.5 26.7707 154.172 25.896C154.855 25.0213 155.265 24.152 155.404 23.288ZM163.366 22.728L163.462 27.432C163.462 28.584 163.062 29.16 162.262 29.16C161.366 29.16 160.918 28.4827 160.918 27.128C160.918 26.0613 161.057 24.616 161.334 22.792C161.334 22.2907 161.275 21.528 161.158 20.504C161.041 19.48 160.982 18.7333 160.982 18.264C160.982 17.784 161.089 17.4213 161.302 17.176C161.515 16.92 161.814 16.792 162.198 16.792C162.977 16.792 163.366 17.3947 163.366 18.6C164.251 17.4267 165.339 16.84 166.63 16.84C167.398 16.84 168.065 17.0267 168.63 17.4C169.206 17.7733 169.649 18.2693 169.958 18.888C170.342 18.312 170.843 17.8267 171.462 17.432C172.081 17.0373 172.747 16.84 173.462 16.84C174.667 16.84 175.601 17.2613 176.262 18.104C176.934 18.936 177.27 19.9547 177.27 21.16L177.174 25.24C177.174 26.264 177.238 26.8347 177.366 26.952C177.473 27.048 177.611 27.112 177.782 27.144C177.953 27.176 178.065 27.2293 178.118 27.304C178.182 27.368 178.214 27.464 178.214 27.592C178.214 28.04 178.059 28.4187 177.75 28.728C177.451 29.0373 177.099 29.192 176.694 29.192C176.022 29.192 175.558 28.9627 175.302 28.504C175.046 28.0347 174.918 27.3467 174.918 26.44L174.998 22.152C174.998 21.1707 174.849 20.3813 174.55 19.784C174.262 19.1867 173.825 18.888 173.238 18.888C172.662 18.888 172.07 19.2773 171.462 20.056C170.865 20.824 170.443 21.7147 170.198 22.728L170.294 27.432C170.294 28.584 169.894 29.16 169.094 29.16C168.198 29.16 167.75 28.4827 167.75 27.128C167.75 26.0613 167.889 24.616 168.166 22.792C168.166 21.576 168.022 20.6213 167.734 19.928C167.446 19.2347 167.009 18.888 166.422 18.888C165.835 18.888 165.238 19.2773 164.63 20.056C164.033 20.824 163.611 21.7147 163.366 22.728ZM187.991 20.328C187.991 19.944 187.836 19.592 187.527 19.272C187.218 18.952 186.775 18.792 186.199 18.792C185.442 18.792 184.796 19.112 184.263 19.752C183.74 20.392 183.372 21.16 183.159 22.056C183.799 22.2053 184.514 22.28 185.303 22.28C186.103 22.28 186.748 22.1093 187.239 21.768C187.74 21.4267 187.991 20.9467 187.991 20.328ZM189.895 27.064C189.895 27.48 189.5 27.9493 188.711 28.472C187.922 28.984 187.079 29.24 186.183 29.24C185.287 29.24 184.514 29.0853 183.863 28.776C183.223 28.456 182.695 28.0293 182.279 27.496C181.404 26.3973 180.914 25.1013 180.807 23.608C180.082 23.32 179.719 22.8773 179.719 22.28C179.719 21.9813 179.815 21.7413 180.007 21.56C180.21 21.368 180.455 21.272 180.743 21.272C180.828 21.272 180.924 21.288 181.031 21.32C181.404 19.9973 182.039 18.9093 182.935 18.056C183.831 17.192 184.876 16.76 186.071 16.76C187.276 16.76 188.274 17.1067 189.063 17.8C189.863 18.4827 190.263 19.304 190.263 20.264C190.263 21.2133 190.023 21.992 189.543 22.6C188.636 23.7093 187.234 24.264 185.335 24.264C184.706 24.264 183.975 24.1947 183.143 24.056C183.303 24.952 183.639 25.704 184.151 26.312C184.663 26.92 185.25 27.224 185.911 27.224C186.647 27.224 187.431 26.9733 188.263 26.472C188.54 26.3013 188.796 26.216 189.031 26.216C189.266 26.216 189.468 26.296 189.639 26.456C189.81 26.616 189.895 26.8187 189.895 27.064Z" fill="white"/>
</svg>
